<svg viewBox="0 0 36 17" fill="none" xmlns="http://www.w3.org/2000/svg">
<g clip-path="url(#clip0_90_5870)">
<path d="M26.3741 0H8.32737C3.72829 0 0 3.65051 0 8.15364C0 12.6568 3.72829 16.3073 8.32737 16.3073H26.3741C30.9732 16.3073 34.7015 12.6568 34.7015 8.15364C34.7015 3.65051 30.9732 0 26.3741 0Z" fill="#0070FF"/>
<path d="M27.2419 10.733C28.6966 10.733 29.8759 9.57836 29.8759 8.15399C29.8759 6.72963 28.6966 5.57495 27.2419 5.57495C25.7872 5.57495 24.6079 6.72963 24.6079 8.15399C24.6079 9.57836 25.7872 10.733 27.2419 10.733Z" fill="white"/>
<path d="M10.3467 10.1649L7.59184 5.97618C7.52981 5.88196 7.38928 5.88196 7.32724 5.97618L4.57234 10.1649C4.50461 10.2671 4.57994 10.4023 4.70464 10.4023H10.2144C10.3391 10.4023 10.4145 10.2671 10.3467 10.1649Z" fill="white"/>
<path d="M19.5292 5.77246H15.1722C15.0323 5.77246 14.9189 5.88346 14.9189 6.02039V10.2866C14.9189 10.4235 15.0323 10.5345 15.1722 10.5345H19.5292C19.6691 10.5345 19.7824 10.4235 19.7824 10.2866V6.02039C19.7824 5.88346 19.6691 5.77246 19.5292 5.77246Z" fill="white"/>
</g>
<defs>
<clipPath id="clip0_90_5870">
<rect width="36" height="17" fill="white"/>
</clipPath>
</defs>
</svg>
