<svg width="152" height="152" viewBox="0 0 152 152" fill="none" xmlns="http://www.w3.org/2000/svg">
<ellipse opacity="0.3" cx="79.0397" cy="72.96" rx="54.72" ry="54.72" fill="#19A672"/>
<path d="M79.0403 42.5604C95.8297 42.5604 109.44 56.1709 109.44 72.9604C109.44 89.7498 95.8297 103.36 79.0403 103.36C62.2508 103.36 48.6403 89.7498 48.6403 72.9604C48.6403 56.1709 62.2508 42.5604 79.0403 42.5604Z" fill="#19A672"/>
<path fill-rule="evenodd" clip-rule="evenodd" d="M113.493 72.9598C113.493 53.9317 98.068 38.5065 79.04 38.5065C60.0119 38.5065 44.5866 53.9317 44.5866 72.9598C44.5866 91.9878 60.0119 107.413 79.04 107.413C98.068 107.413 113.493 91.9878 113.493 72.9598ZM121.6 72.9598C121.6 49.4545 102.545 30.3998 79.04 30.3998C55.5347 30.3998 36.48 49.4545 36.48 72.9598C36.48 96.465 55.5347 115.52 79.04 115.52C102.545 115.52 121.6 96.465 121.6 72.9598Z" fill="#19A672"/>
<path d="M65.4208 74.906L75.1488 84.634L94.6048 63.2324" stroke="white" stroke-width="3" stroke-linecap="round"/>
</svg>
